<svg width="1200" height="640" viewBox="0 0 1200 640" fill="none" xmlns="http://www.w3.org/2000/svg">
  <rect width="1200" height="640" fill="#0d1117"/>
  <text x="20" y="34" font-family="SFMono-Regular, Consolas, 'Liberation Mono', Menlo, monospace" font-size="16" font-weight="bold" letter-spacing="1" fill="#7dd3fc">PROJECTS.LIST</text>
  <text x="180" y="34" font-family="SFMono-Regular, Consolas, 'Liberation Mono', Menlo, monospace" font-size="13" fill="#8b949e">./projects.sh --all</text>
  
    <g transform="translate(20,60)">
      <a href="https://github.com/DevGopi-16/f1-race-replay" target="_blank">
      <rect width="560" height="260" rx="10" fill="#0d1117" stroke="#30363d" stroke-width="1.3"/>
      <circle cx="10" cy="20" r="3" fill="#7dd3fc"/>
      <text x="20" y="24" font-family="SFMono-Regular, Consolas, 'Liberation Mono', Menlo, monospace" font-size="12.5" fill="#7dd3fc">DevGopi-16/f1-race-replay</text>
      <circle cx="540" cy="19" r="4" fill="#3a4350"/>
      <line x1="0" y1="34" x2="560" y2="34" stroke="#30363d" stroke-width="1"/>

      <rect x="16" y="50" width="56" height="56" rx="10" fill="#3b1d1d"/>
      <g transform="translate(34.0,64.0)"><line x1="0" y1="0" x2="0" y2="28" stroke="#f87171" stroke-width="2"/><g transform="translate(2,0)"><rect x="0" y="0" width="5" height="5" fill="#f87171"/><rect x="10" y="0" width="5" height="5" fill="#f87171"/><rect x="5" y="5" width="5" height="5" fill="#f87171"/><rect x="15" y="5" width="5" height="5" fill="#f87171"/><rect x="0" y="10" width="5" height="5" fill="#f87171"/><rect x="10" y="10" width="5" height="5" fill="#f87171"/><rect x="5" y="15" width="5" height="5" fill="#f87171"/><rect x="15" y="15" width="5" height="5" fill="#f87171"/></g></g>

      <text x="84" y="72" font-family="SFMono-Regular, Consolas, 'Liberation Mono', Menlo, monospace" font-size="17" font-weight="bold" fill="#e6edf3">RaceVision<tspan fill="#a78bfa">_<animate attributeName="opacity" values="1;0;1" dur="1s" repeatCount="indefinite"/></tspan></text>
      <text x="84" y="92" font-family="SFMono-Regular, Consolas, 'Liberation Mono', Menlo, monospace" font-size="11.5" fill="#8b949e">F1 race replay and telemetry</text><text x="84" y="107" font-family="SFMono-Regular, Consolas, 'Liberation Mono', Menlo, monospace" font-size="11.5" fill="#8b949e">analytics</text>

      <circle cx="330" cy="62" r="4" fill="#f1e05a"/><text x="340" y="66" font-family="SFMono-Regular, Consolas, 'Liberation Mono', Menlo, monospace" font-size="11" fill="#8b949e">JavaScript 36%</text><circle cx="330" cy="81" r="4" fill="#3572A5"/><text x="340" y="85" font-family="SFMono-Regular, Consolas, 'Liberation Mono', Menlo, monospace" font-size="11" fill="#8b949e">Python 32%</text><circle cx="330" cy="100" r="4" fill="#563d7c"/><text x="340" y="104" font-family="SFMono-Regular, Consolas, 'Liberation Mono', Menlo, monospace" font-size="11" fill="#8b949e">CSS 26%</text><circle cx="330" cy="119" r="4" fill="#e34c26"/><text x="340" y="123" font-family="SFMono-Regular, Consolas, 'Liberation Mono', Menlo, monospace" font-size="11" fill="#8b949e">HTML 6%</text>
      <circle cx="495" cy="100" r="34" fill="none" stroke="#1c2530" stroke-width="12"/><circle cx="495" cy="100" r="34" fill="none" stroke="#f1e05a" stroke-width="12" stroke-dasharray="77.33 136.30" stroke-dashoffset="0.00" stroke-linecap="butt" transform="rotate(-90 495 100)"/><circle cx="495" cy="100" r="34" fill="none" stroke="#3572A5" stroke-width="12" stroke-dasharray="68.79 144.84" stroke-dashoffset="-77.33" stroke-linecap="butt" transform="rotate(-90 495 100)"/><circle cx="495" cy="100" r="34" fill="none" stroke="#563d7c" stroke-width="12" stroke-dasharray="55.24 158.39" stroke-dashoffset="-146.12" stroke-linecap="butt" transform="rotate(-90 495 100)"/><circle cx="495" cy="100" r="34" fill="none" stroke="#e34c26" stroke-width="12" stroke-dasharray="12.27 201.36" stroke-dashoffset="-201.36" stroke-linecap="butt" transform="rotate(-90 495 100)"/><text x="495" y="105" text-anchor="middle" font-family="SFMono-Regular, Consolas, 'Liberation Mono', Menlo, monospace" font-size="16" font-weight="bold" fill="#e6edf3">36%</text>

      <rect x="84" y="150" width="63" height="24" rx="12" fill="none" stroke="#7c5cd6" stroke-width="1"/><text x="116" y="166" text-anchor="middle" font-family="SFMono-Regular, Consolas, 'Liberation Mono', Menlo, monospace" font-size="11" fill="#a78bfa">FastAPI</text><rect x="155" y="150" width="57" height="24" rx="12" fill="none" stroke="#7c5cd6" stroke-width="1"/><text x="184" y="166" text-anchor="middle" font-family="SFMono-Regular, Consolas, 'Liberation Mono', Menlo, monospace" font-size="11" fill="#a78bfa">FastF1</text><rect x="221" y="150" width="82" height="24" rx="12" fill="none" stroke="#7c5cd6" stroke-width="1"/><text x="262" y="166" text-anchor="middle" font-family="SFMono-Regular, Consolas, 'Liberation Mono', Menlo, monospace" font-size="11" fill="#a78bfa">JavaScript</text>

      <line x1="16" y1="222" x2="544" y2="222" stroke="#30363d" stroke-width="1"/>
      <text x="16" y="244" font-family="SFMono-Regular, Consolas, 'Liberation Mono', Menlo, monospace" font-size="11" fill="#7dd3fc">★</text>
      <text x="30" y="244" font-family="SFMono-Regular, Consolas, 'Liberation Mono', Menlo, monospace" font-size="11" font-weight="bold" fill="#e6edf3">0</text>
      <text x="544" y="244" text-anchor="end" font-family="SFMono-Regular, Consolas, 'Liberation Mono', Menlo, monospace" font-size="11" fill="#8b949e">updated 10d ago</text>
      </a>
    </g>
    <g transform="translate(600,60)">
      <a href="https://github.com/DevGopi-16/Movie-Recommendation-System" target="_blank">
      <rect width="560" height="260" rx="10" fill="#0d1117" stroke="#30363d" stroke-width="1.3"/>
      <circle cx="10" cy="20" r="3" fill="#7dd3fc"/>
      <text x="20" y="24" font-family="SFMono-Regular, Consolas, 'Liberation Mono', Menlo, monospace" font-size="12.5" fill="#7dd3fc">DevGopi-16/Movie-Recommendation-System</text>
      <circle cx="540" cy="19" r="4" fill="#3a4350"/>
      <line x1="0" y1="34" x2="560" y2="34" stroke="#30363d" stroke-width="1"/>

      <rect x="16" y="50" width="56" height="56" rx="10" fill="#1d2a3b"/>
      <g transform="translate(30.0,64.0)" fill="none" stroke="#60a5fa" stroke-width="2"><rect x="0" y="4" width="28" height="18" rx="2"/><line x1="7" y1="4" x2="4" y2="0"/><line x1="14" y1="4" x2="11" y2="0"/><line x1="21" y1="4" x2="18" y2="0"/><rect x="0" y="0" width="28" height="4" rx="1"/></g>

      <text x="84" y="72" font-family="SFMono-Regular, Consolas, 'Liberation Mono', Menlo, monospace" font-size="17" font-weight="bold" fill="#e6edf3">Movie Recommender<tspan fill="#a78bfa">_<animate attributeName="opacity" values="1;0;1" dur="1s" repeatCount="indefinite"/></tspan></text>
      <text x="84" y="92" font-family="SFMono-Regular, Consolas, 'Liberation Mono', Menlo, monospace" font-size="11.5" fill="#8b949e">ML movie recommender using</text><text x="84" y="107" font-family="SFMono-Regular, Consolas, 'Liberation Mono', Menlo, monospace" font-size="11.5" fill="#8b949e">content-based</text>

      <circle cx="330" cy="62" r="4" fill="#3572A5"/><text x="340" y="66" font-family="SFMono-Regular, Consolas, 'Liberation Mono', Menlo, monospace" font-size="11" fill="#8b949e">Python 100%</text>
      <circle cx="495" cy="100" r="34" fill="none" stroke="#1c2530" stroke-width="12"/><circle cx="495" cy="100" r="34" fill="none" stroke="#3572A5" stroke-width="12" stroke-dasharray="213.63 0.00" stroke-dashoffset="0.00" stroke-linecap="butt" transform="rotate(-90 495 100)"/><text x="495" y="105" text-anchor="middle" font-family="SFMono-Regular, Consolas, 'Liberation Mono', Menlo, monospace" font-size="16" font-weight="bold" fill="#e6edf3">100%</text>

      <rect x="84" y="150" width="57" height="24" rx="12" fill="none" stroke="#7c5cd6" stroke-width="1"/><text x="113" y="166" text-anchor="middle" font-family="SFMono-Regular, Consolas, 'Liberation Mono', Menlo, monospace" font-size="11" fill="#a78bfa">Python</text><rect x="149" y="150" width="94" height="24" rx="12" fill="none" stroke="#7c5cd6" stroke-width="1"/><text x="196" y="166" text-anchor="middle" font-family="SFMono-Regular, Consolas, 'Liberation Mono', Menlo, monospace" font-size="11" fill="#a78bfa">Scikit-learn</text><rect x="252" y="150" width="76" height="24" rx="12" fill="none" stroke="#7c5cd6" stroke-width="1"/><text x="290" y="166" text-anchor="middle" font-family="SFMono-Regular, Consolas, 'Liberation Mono', Menlo, monospace" font-size="11" fill="#a78bfa">Streamlit</text>

      <line x1="16" y1="222" x2="544" y2="222" stroke="#30363d" stroke-width="1"/>
      <text x="16" y="244" font-family="SFMono-Regular, Consolas, 'Liberation Mono', Menlo, monospace" font-size="11" fill="#7dd3fc">★</text>
      <text x="30" y="244" font-family="SFMono-Regular, Consolas, 'Liberation Mono', Menlo, monospace" font-size="11" font-weight="bold" fill="#e6edf3">0</text>
      <text x="544" y="244" text-anchor="end" font-family="SFMono-Regular, Consolas, 'Liberation Mono', Menlo, monospace" font-size="11" fill="#8b949e">updated 1mo ago</text>
      </a>
    </g>
    <g transform="translate(20,340)">
      <a href="https://github.com/DevGopi-16/Multi-Functional-Security-Toolkit" target="_blank">
      <rect width="560" height="260" rx="10" fill="#0d1117" stroke="#30363d" stroke-width="1.3"/>
      <circle cx="10" cy="20" r="3" fill="#7dd3fc"/>
      <text x="20" y="24" font-family="SFMono-Regular, Consolas, 'Liberation Mono', Menlo, monospace" font-size="12.5" fill="#7dd3fc">DevGopi-16/Multi-Functional-Security-Toolkit</text>
      <circle cx="540" cy="19" r="4" fill="#3a4350"/>
      <line x1="0" y1="34" x2="560" y2="34" stroke="#30363d" stroke-width="1"/>

      <rect x="16" y="50" width="56" height="56" rx="10" fill="#1d3b2a"/>
      <g transform="translate(31.0,64.0)" fill="none" stroke="#4ade80" stroke-width="2"><rect x="0" y="12" width="26" height="18" rx="3"/><path d="M5,12 V8 a8,8 0 0 1 16,0 v4"/><circle cx="13" cy="21" r="2.5" fill="#4ade80" stroke="none"/></g>

      <text x="84" y="72" font-family="SFMono-Regular, Consolas, 'Liberation Mono', Menlo, monospace" font-size="17" font-weight="bold" fill="#e6edf3">Security Toolkit<tspan fill="#a78bfa">_<animate attributeName="opacity" values="1;0;1" dur="1s" repeatCount="indefinite"/></tspan></text>
      <text x="84" y="92" font-family="SFMono-Regular, Consolas, 'Liberation Mono', Menlo, monospace" font-size="11.5" fill="#8b949e">Password manager, file encryption</text><text x="84" y="107" font-family="SFMono-Regular, Consolas, 'Liberation Mono', Menlo, monospace" font-size="11.5" fill="#8b949e">and</text>

      <circle cx="330" cy="62" r="4" fill="#3572A5"/><text x="340" y="66" font-family="SFMono-Regular, Consolas, 'Liberation Mono', Menlo, monospace" font-size="11" fill="#8b949e">Python 100%</text>
      <circle cx="495" cy="100" r="34" fill="none" stroke="#1c2530" stroke-width="12"/><circle cx="495" cy="100" r="34" fill="none" stroke="#3572A5" stroke-width="12" stroke-dasharray="213.63 0.00" stroke-dashoffset="0.00" stroke-linecap="butt" transform="rotate(-90 495 100)"/><text x="495" y="105" text-anchor="middle" font-family="SFMono-Regular, Consolas, 'Liberation Mono', Menlo, monospace" font-size="16" font-weight="bold" fill="#e6edf3">100%</text>

      <rect x="84" y="150" width="57" height="24" rx="12" fill="none" stroke="#7c5cd6" stroke-width="1"/><text x="113" y="166" text-anchor="middle" font-family="SFMono-Regular, Consolas, 'Liberation Mono', Menlo, monospace" font-size="11" fill="#a78bfa">Python</text><rect x="149" y="150" width="63" height="24" rx="12" fill="none" stroke="#7c5cd6" stroke-width="1"/><text x="181" y="166" text-anchor="middle" font-family="SFMono-Regular, Consolas, 'Liberation Mono', Menlo, monospace" font-size="11" fill="#a78bfa">Tkinter</text><rect x="221" y="150" width="94" height="24" rx="12" fill="none" stroke="#7c5cd6" stroke-width="1"/><text x="268" y="166" text-anchor="middle" font-family="SFMono-Regular, Consolas, 'Liberation Mono', Menlo, monospace" font-size="11" fill="#a78bfa">Cryptography</text>

      <line x1="16" y1="222" x2="544" y2="222" stroke="#30363d" stroke-width="1"/>
      <text x="16" y="244" font-family="SFMono-Regular, Consolas, 'Liberation Mono', Menlo, monospace" font-size="11" fill="#7dd3fc">★</text>
      <text x="30" y="244" font-family="SFMono-Regular, Consolas, 'Liberation Mono', Menlo, monospace" font-size="11" font-weight="bold" fill="#e6edf3">0</text>
      <text x="544" y="244" text-anchor="end" font-family="SFMono-Regular, Consolas, 'Liberation Mono', Menlo, monospace" font-size="11" fill="#8b949e">updated 28d ago</text>
      </a>
    </g>
</svg>